<svg xmlns="http://www.w3.org/2000/svg" xmlns:xlink="http://www.w3.org/1999/xlink" width="128" height="21.293" viewBox="0 0 128 21.293"><defs><style>.a{fill:none;}.b{clip-path:url(#a);}.c,.e{fill:#00265a;}.d{fill:#f4690a;}.e,.i{fill-rule:evenodd;}.f{fill:#fff;}.g,.i{fill:#001e4a;}.h{fill:#d13438;}</style><clipPath id="a"><rect class="a" width="128" height="21.293"/></clipPath></defs><g class="b" transform="translate(0 0)"><path class="c" d="M107.536,18.97a4.659,4.659,0,0,1-4.23,2.115A3.352,3.352,0,0,1,99.8,17.969c0-1.781,1.5-2.838,3.951-2.838h3.784V14.073c0-1.781-1.057-2.894-3.172-2.894A5.788,5.788,0,0,0,100.8,12.57l-.39-.668a6.678,6.678,0,0,1,4.118-1.5c2.5,0,3.9,1.391,3.9,3.562v7.123h-.835Zm0-1.391V15.91h-3.729c-2.059,0-3.228.723-3.228,2.059s1.057,2.337,2.838,2.337a4.12,4.12,0,0,0,4.118-2.727" transform="translate(-44.259 -4.612)"/><path class="c" d="M128.538,14.673v6.456H127.7V14.84a3.161,3.161,0,0,0-3.45-3.45,4.128,4.128,0,0,0-4.118,4.063v5.677H119.3V10.5h.835v2.727a4.465,4.465,0,0,1,4.341-2.727,4.017,4.017,0,0,1,4.118,4.174" transform="translate(-52.907 -4.655)"/><path class="c" d="M148.318,17.537h-.835V14.755a4.786,4.786,0,0,1-4.508,2.838A5.073,5.073,0,0,1,137.8,12.25a5.12,5.12,0,0,1,5.176-5.4,4.786,4.786,0,0,1,4.563,2.838V2.4h.835Zm-.835-5.287a4.313,4.313,0,0,0-4.4-4.563,4.422,4.422,0,0,0-4.452,4.563,4.325,4.325,0,0,0,4.452,4.563,4.282,4.282,0,0,0,4.4-4.563" transform="translate(-61.111 -1.064)"/><path class="d" d="M172.266,11.33c0,3.339-2.059,5.565-5.287,5.565a4.285,4.285,0,0,1-3.506-1.614v1.447H159.8V1.646h3.673V7.211a4.23,4.23,0,0,1,3.395-1.558c3.228,0,5.4,2.282,5.4,5.677m-3.673-.111a2.6,2.6,0,0,0-2.56-2.838,2.555,2.555,0,0,0-2.5,2.838,2.555,2.555,0,1,0,5.064,0m7.346-8.57A1.948,1.948,0,1,1,173.991.7a1.948,1.948,0,0,1,1.948,1.948m-3.784,3.117h3.673V16.783h-3.673Zm8.9,8.014v3.005h-3.673V1.646h3.673V9.66l3.784-3.84h4.174l-4.23,4.23,4.341,6.79h-4.341l-2.5-4.285Zm17.809-1.558H190.8a2.616,2.616,0,0,0,2.727,2.059,3.951,3.951,0,0,0,2.727-1.113L198.2,15a6.734,6.734,0,0,1-5.009,1.948c-3.729,0-6.066-2.226-6.066-5.565s2.449-5.677,5.955-5.677,6.01,2.56,5.788,6.567m-3.562-1.948A2.115,2.115,0,0,0,193.08,8.1a2.414,2.414,0,0,0-2.393,2.226Z" transform="translate(-70.868 -0.31)"/><path class="c" d="M56.675,12.1l-2.616,1.558a2.783,2.783,0,0,0-2.337-1.169c-1.447,0-2.393,1.113-2.393,2.783a2.556,2.556,0,0,0,4.73,1.558l2.671,1.5c-.946,1.614-2.783,2.56-5.231,2.56-3.506,0-5.9-2.226-5.9-5.565S48.049,9.6,51.61,9.6a5.831,5.831,0,0,1,5.12,2.449m9.85,1.447v7.235H62.963v-1.28A4.22,4.22,0,0,1,59.457,20.9c-2.449,0-3.951-1.447-3.951-3.45s1.558-3.283,4.4-3.339h3.005v-.167c0-1.057-.723-1.725-2.226-1.725a8.348,8.348,0,0,0-3.395.946L56.23,10.823A12.522,12.522,0,0,1,61.572,9.6c3.172,0,4.953,1.5,5.009,4.007m-3.617,3.45V16H60.626q-1.67,0-1.67,1.169c0,.779.612,1.28,1.614,1.28a2.337,2.337,0,0,0,2.337-1.5M70.866,11.6a4.23,4.23,0,0,1,3.729-2v3.172c-2.115-.167-3.506.779-3.729,2.337v5.621H67.193V9.71h3.673Z" transform="translate(-20.223 -4.256)"/><path class="e" d="M10.63,0A10.63,10.63,0,1,1,0,10.63,10.63,10.63,0,0,1,10.63,0" transform="translate(0 0)"/><path class="d" d="M11.794,21.088a9.294,9.294,0,1,1,6.592-2.742,9.294,9.294,0,0,1-6.592,2.742m0-.946a8.4,8.4,0,1,0-8.348-8.4,8.4,8.4,0,0,0,8.348,8.4" transform="translate(-1.109 -1.109)"/><path class="f" d="M19.4,13.274a2.838,2.838,0,0,0-2.115-.946c-.334,0-.723.056-.723.111V9.1a2.5,2.5,0,0,0-1.5.5c-.445.334-.668.612-.668.946V14l-2.17,2.059a1.169,1.169,0,0,1-.835.278,1.113,1.113,0,0,1-1.113-1,1.152,1.152,0,0,1,1.057-1.057,1.057,1.057,0,0,1,.779.334l.167.167,1.5-1.5-.167-.167a3.061,3.061,0,0,0-2.282-.946,3.061,3.061,0,0,0-2.282.946A3.117,3.117,0,0,0,8.1,15.333a3.005,3.005,0,0,0,.946,2.226,3.117,3.117,0,0,0,2.226.946,3.061,3.061,0,0,0,2.226-.946L14.055,17h0l2.337-2.226a1.057,1.057,0,0,1,.779-.278,1,1,0,0,1,.723.334,1.057,1.057,0,0,1,0,1.5,1,1,0,0,1-.723.334,1.057,1.057,0,0,1-.779-.39l-.167-.167-1.5,1.5.167.167a3.225,3.225,0,0,0,4.563,0,3.117,3.117,0,0,0,.946-2.226,3.005,3.005,0,0,0-.946-2.226" transform="translate(-3.592 -4.036)"/><path class="g" d="M107.536,18.97a4.659,4.659,0,0,1-4.23,2.115A3.352,3.352,0,0,1,99.8,17.969c0-1.781,1.5-2.838,3.951-2.838h3.784V14.073c0-1.781-1.057-2.894-3.172-2.894A5.788,5.788,0,0,0,100.8,12.57l-.39-.668a6.678,6.678,0,0,1,4.118-1.5c2.5,0,3.9,1.391,3.9,3.562v7.123h-.835Zm0-1.391V15.91h-3.729c-2.059,0-3.228.723-3.228,2.059s1.057,2.337,2.838,2.337a4.12,4.12,0,0,0,4.118-2.727" transform="translate(-44.259 -4.612)"/><path class="g" d="M128.538,14.673v6.456H127.7V14.84a3.161,3.161,0,0,0-3.45-3.45,4.128,4.128,0,0,0-4.118,4.063v5.677H119.3V10.5h.835v2.727a4.465,4.465,0,0,1,4.341-2.727,4.017,4.017,0,0,1,4.118,4.174" transform="translate(-52.907 -4.655)"/><path class="g" d="M148.318,17.537h-.835V14.755a4.786,4.786,0,0,1-4.508,2.838A5.073,5.073,0,0,1,137.8,12.25a5.12,5.12,0,0,1,5.176-5.4,4.786,4.786,0,0,1,4.563,2.838V2.4h.835Zm-.835-5.287a4.313,4.313,0,0,0-4.4-4.563,4.422,4.422,0,0,0-4.452,4.563,4.325,4.325,0,0,0,4.452,4.563,4.282,4.282,0,0,0,4.4-4.563" transform="translate(-61.111 -1.064)"/><path class="h" d="M172.266,11.33c0,3.339-2.059,5.565-5.287,5.565a4.285,4.285,0,0,1-3.506-1.614v1.447H159.8V1.646h3.673V7.211a4.23,4.23,0,0,1,3.395-1.558c3.228,0,5.4,2.282,5.4,5.677m-3.673-.111a2.6,2.6,0,0,0-2.56-2.838,2.555,2.555,0,0,0-2.5,2.838,2.555,2.555,0,1,0,5.064,0m7.346-8.57A1.948,1.948,0,1,1,173.991.7a1.948,1.948,0,0,1,1.948,1.948m-3.784,3.117h3.673V16.783h-3.673Zm8.9,8.014v3.005h-3.673V1.646h3.673V9.66l3.784-3.84h4.174l-4.23,4.23,4.341,6.79h-4.341l-2.5-4.285Zm17.809-1.558H190.8a2.616,2.616,0,0,0,2.727,2.059,3.951,3.951,0,0,0,2.727-1.113L198.2,15a6.734,6.734,0,0,1-5.009,1.948c-3.729,0-6.066-2.226-6.066-5.565s2.449-5.677,5.955-5.677,6.01,2.56,5.788,6.567m-3.562-1.948A2.115,2.115,0,0,0,193.08,8.1a2.414,2.414,0,0,0-2.393,2.226Z" transform="translate(-70.868 -0.31)"/><path class="g" d="M56.675,12.1l-2.616,1.558a2.783,2.783,0,0,0-2.337-1.169c-1.447,0-2.393,1.113-2.393,2.783a2.556,2.556,0,0,0,4.73,1.558l2.671,1.5c-.946,1.614-2.783,2.56-5.231,2.56-3.506,0-5.9-2.226-5.9-5.565S48.049,9.6,51.61,9.6a5.831,5.831,0,0,1,5.12,2.449m9.85,1.447v7.235H62.963v-1.28A4.22,4.22,0,0,1,59.457,20.9c-2.449,0-3.951-1.447-3.951-3.45s1.558-3.283,4.4-3.339h3.005v-.167c0-1.057-.723-1.725-2.226-1.725a8.348,8.348,0,0,0-3.395.946L56.23,10.823A12.522,12.522,0,0,1,61.572,9.6c3.172,0,4.953,1.5,5.009,4.007m-3.617,3.45V16H60.626q-1.67,0-1.67,1.169c0,.779.612,1.28,1.614,1.28a2.337,2.337,0,0,0,2.337-1.5M70.866,11.6a4.23,4.23,0,0,1,3.729-2v3.172c-2.115-.167-3.506.779-3.729,2.337v5.621H67.193V9.71h3.673Z" transform="translate(-20.223 -4.256)"/><path class="i" d="M10.63,0A10.63,10.63,0,1,1,0,10.63,10.63,10.63,0,0,1,10.63,0" transform="translate(0 0)"/><path class="h" d="M11.794,21.088a9.294,9.294,0,1,1,6.592-2.742,9.294,9.294,0,0,1-6.592,2.742m0-.946a8.4,8.4,0,1,0-8.348-8.4,8.4,8.4,0,0,0,8.348,8.4" transform="translate(-1.109 -1.109)"/><path class="f" d="M19.4,13.274a2.838,2.838,0,0,0-2.115-.946c-.334,0-.723.056-.723.111V9.1a2.5,2.5,0,0,0-1.5.5c-.445.334-.668.612-.668.946V14l-2.17,2.059a1.169,1.169,0,0,1-.835.278,1.113,1.113,0,0,1-1.113-1,1.152,1.152,0,0,1,1.057-1.057,1.057,1.057,0,0,1,.779.334l.167.167,1.5-1.5-.167-.167a3.061,3.061,0,0,0-2.282-.946,3.061,3.061,0,0,0-2.282.946A3.117,3.117,0,0,0,8.1,15.333a3.005,3.005,0,0,0,.946,2.226,3.117,3.117,0,0,0,2.226.946,3.061,3.061,0,0,0,2.226-.946L14.055,17h0l2.337-2.226a1.057,1.057,0,0,1,.779-.278,1,1,0,0,1,.723.334,1.057,1.057,0,0,1,0,1.5,1,1,0,0,1-.723.334,1.057,1.057,0,0,1-.779-.39l-.167-.167-1.5,1.5.167.167a3.225,3.225,0,0,0,4.563,0,3.117,3.117,0,0,0,.946-2.226,3.005,3.005,0,0,0-.946-2.226" transform="translate(-3.592 -4.036)"/></g></svg>