<svg xmlns="http://www.w3.org/2000/svg" width="90.167" height="90.333" viewBox="0 0 90.167 90.333"><defs><style>.a{fill:#cde9e0;}.a,.b,.c,.d{stroke:#12395f;stroke-miterlimit:10;}.a,.c,.d{stroke-linecap:round;stroke-linejoin:round;}.b,.c{fill:none;}.d{fill:#fff;}</style></defs><g transform="translate(-90.5 -278.5)"><g transform="translate(91 279)"><g transform="translate(36.5 0)"><rect class="a" width="40.833" height="64.667" transform="translate(5.833 9.333)"/><path class="b" d="M69.567,89.833H27.9a5.549,5.549,0,0,1-5.5-5.5V6A5.549,5.549,0,0,1,27.9.5H69.4A5.586,5.586,0,0,1,75.067,6V84.333A5.442,5.442,0,0,1,69.567,89.833Z" transform="translate(-22.4 -0.5)"/><circle class="c" cx="3.333" cy="3.333" r="3.333" transform="translate(23 78.5)"/><path class="b" d="M43.067,5.3H36.9a1.494,1.494,0,0,1-1.5-1.5h0a1.494,1.494,0,0,1,1.5-1.5h6.167a1.494,1.494,0,0,1,1.5,1.5h0C44.733,4.633,43.9,5.3,43.067,5.3Z" transform="translate(-13.733 0.7)"/></g><g transform="translate(24.5 18.667)"><circle class="d" cx="15.333" cy="15.333" r="15.333"/><path class="c" d="M35.533,17.6l-10.667,11L19.7,23.433" transform="translate(-12.2 -7.767)"/></g><g transform="translate(0 51.744)"><path class="a" d="M13,64.433H.5V38.1H13V64.433Z" transform="translate(-0.5 -27.177)"/><path class="a" d="M8,46.469a14.951,14.951,0,0,0,8.333-5.5,15.751,15.751,0,0,0,3.167-9s7.333-2.833,5.5,6.167c-1.333,6.5-1.5,5.833,8.667,5.833,9.333,0,6.833,6.167,1.5,6.167A3.229,3.229,0,1,1,34,56.3a3.577,3.577,0,0,1,3.167,3.667C37,61.8,34.833,63.3,32.5,62.636a3.084,3.084,0,0,1-.167,6.167H24.667c-3.5,0-4.833.333-6.5.167-.5,0-1.5-.167-2.667-.167A28.244,28.244,0,0,1,8,66.969Q8,56.719,8,46.469Z" transform="translate(4.5 -31.546)"/></g></g></g></svg>